<svg width="78" height="22" viewBox="0 0 78 22" fill="none" xmlns="http://www.w3.org/2000/svg">
<path fill-rule="evenodd" clip-rule="evenodd" d="M76.7282 20.922C76.8634 20.9012 76.9919 20.8814 77.1172 20.8633C77.6372 20.799 77.8102 20.6386 77.8102 20.1893V18.136C77.8102 17.7831 77.4987 17.4945 77.1172 17.4945H70.0473C68.0371 17.4945 67.3094 16.8526 67.3094 14.735L67.311 12.8603H76.7032C77.0841 12.8603 77.3962 12.5717 77.3962 12.2188V9.90868C77.3962 9.55576 77.0841 9.26681 76.7032 9.26681H67.311V7.98397C67.311 5.86643 68.0391 5.22456 70.0493 5.22456H77.1191C77.5 5.22456 77.8121 4.93591 77.8121 4.58299V2.52943C77.8121 2.08039 77.6389 1.91999 77.1191 1.85572C76.9941 1.83763 76.8659 1.81791 76.7311 1.79716C75.6701 1.6339 74.1935 1.40668 70.5343 1.40668C66.0288 1.40668 62.5285 2.52943 62.5285 7.98397L62.5269 14.735C62.5269 20.1893 66.0269 21.3126 70.5324 21.3126C74.1905 21.3126 75.6673 21.0853 76.7282 20.922ZM32.3819 20.688L36 2.68675V2.55546C36 2.29257 35.8148 2.06251 35.4807 2.06251H35.11C34.7389 2.06251 34.4426 2.35822 34.3681 2.68675L30.75 20.688V20.8196C30.75 21.0825 30.9355 21.3125 31.2693 21.3125H31.64C32.0111 21.3125 32.3078 21.0168 32.3819 20.688ZM27.75 2.61448L24.882 18.6825C24.5662 20.728 23.548 21.3125 21.7223 21.3125H19.8266C18.2468 21.3125 17.4044 20.5982 16.9128 18.715L14.1392 10.6379C14.1323 10.6092 14.1261 10.5827 14.1204 10.5583C14.0675 10.3334 14.0551 10.2805 13.9286 10.2805C13.7882 10.2805 13.7534 10.3456 13.6831 10.6379L10.9092 18.715C10.4178 20.5982 9.5755 21.3125 7.99532 21.3125H6.09995C4.27394 21.3125 3.25576 20.728 2.93992 18.6825L0 2.61448V2.51721C0 2.22482 0.281 2.06251 0.596841 2.06251H4.31822C4.5989 2.06251 4.8799 2.28986 4.91474 2.647L7.08264 16.8968C7.08727 16.9353 7.0913 16.9721 7.09511 17.007C7.12024 17.2369 7.1363 17.3837 7.25814 17.3837C7.36766 17.3837 7.39171 17.2651 7.43042 17.0742C7.44131 17.0204 7.45336 16.961 7.46881 16.8968L10.4879 8.13771C10.6988 7.3587 11.1902 6.67695 12.6997 6.67695H15.1226C16.6318 6.67695 17.1231 7.3587 17.3341 8.13771L20.3531 16.8968C20.3686 16.9609 20.3806 17.0202 20.3915 17.0739C20.4302 17.265 20.4543 17.3837 20.5641 17.3837C20.6855 17.3837 20.7017 17.2373 20.727 17.008L20.727 17.0076C20.7309 16.9726 20.7349 16.9355 20.7396 16.8968L22.8346 2.647C22.8704 2.28986 23.1511 2.06251 23.4314 2.06251H27.1532C27.4693 2.06251 27.75 2.22482 27.75 2.51721V2.61448ZM56.8601 2.06251H57.2709C57.613 2.06251 57.75 2.29287 57.75 2.55545V2.68704L54.6476 19.6702C54.4438 20.7136 53.7007 21.3032 52.8534 21.3125V21.3116C52.8468 21.3116 52.8402 21.3125 52.834 21.3125C52.8329 21.3125 52.832 21.3124 52.831 21.3124C52.83 21.3123 52.829 21.3122 52.8277 21.3122C51.9764 21.3113 51.5327 21.0804 51.2596 20.261L45.6728 3.6729C45.6415 3.55185 45.5226 3.46242 45.3975 3.44827V3.44315C45.3928 3.44275 45.3881 3.44166 45.3833 3.44056C45.3772 3.43915 45.3711 3.43773 45.3649 3.43773C45.358 3.43773 45.3505 3.44001 45.3429 3.44231C45.3395 3.44336 45.336 3.44441 45.3326 3.44526V3.43863C45.2674 3.4555 45.1887 3.52084 45.1595 3.66116L42.0054 20.688C41.9371 21.0165 41.6633 21.3122 41.3209 21.3122H40.9785C40.6709 21.3122 40.5 21.0822 40.5 20.8196V20.688L43.6538 3.66116C43.8714 2.55756 44.6525 2.13177 45.3326 2.06251V2.06914C45.3403 2.06838 45.3481 2.0675 45.3559 2.06661C45.3698 2.06505 45.3837 2.06348 45.3975 2.06251V2.06763C45.4442 2.06432 45.4907 2.06251 45.5361 2.06251C46.4254 2.06251 46.8703 2.52263 47.0757 3.0812L52.6628 19.7021C52.6926 19.8175 52.728 19.9021 52.8277 19.9222C52.8317 19.9229 52.8351 19.9242 52.8386 19.9255C52.8432 19.9271 52.8478 19.9288 52.8534 19.9292V19.9298C52.8557 19.93 52.8577 19.9307 52.8597 19.9314C52.8622 19.9322 52.8648 19.9331 52.8681 19.9331C52.902 19.9331 53.0732 19.8015 53.1077 19.6702L56.2101 2.68704C56.2785 2.35821 56.5183 2.06251 56.8601 2.06251Z" fill="#1D1D1B"/>
</svg>
